# xmcd CD database file
# Copyright (C) 1996 Ti Kan
#
# Track frame offsets:
# 	182
# 	17302
# 	32727
# 	46822
# 	63350
# 	77015
# 	92077
# 	107777
# 	120617
# 	134165
#
# Disc length: 1958 seconds
#
# Revision: 1
# Processed by: cddbd v1.4b41PL1 Copyright (c) Steve Scherf et al.
# Submitted via: DiscPlay 3.4.1
#
DISCID=7b07a40a
DTITLE=John Brannen - John Brannen
DYEAR=1900
DGENRE=
TTITLE0=Moonlight and Magnolias
TTITLE1=Strangers An Hour Ago
TTITLE2=Not As Tough As I Thought
TTITLE3=Love's Not Made Of Steel
TTITLE4=Never Say Never Again
TTITLE5=As Far As My Eyes Can See
TTITLE6=Savin' The Best For Last
TTITLE7=Heart Broken Down
TTITLE8=Lonesome Side Of Midnight
TTITLE9=Wild Horses In Her Eyes
EXTD=
EXTT0=
EXTT1=
EXTT2=
EXTT3=
EXTT4=
EXTT5=
EXTT6=
EXTT7=
EXTT8=
EXTT9=
PLAYORDER=
